<svg xmlns="http://www.w3.org/2000/svg" viewBox="0 0 1200 750">
<rect width="1200" height="750" fill="#050508"/>
<defs>
  <filter id="glow"><feGaussianBlur stdDeviation="3" result="b"/>
    <feMerge><feMergeNode in="b"/><feMergeNode in="SourceGraphic"/></feMerge>
  </filter>
</defs>
<line x1="787.5" y1="446.5" x2="714.4" y2="412.0" stroke="#4c6799" stroke-opacity="0.10" stroke-width="1"/>
<line x1="787.5" y1="446.5" x2="812.6" y2="465.8" stroke="#4c5099" stroke-opacity="0.34" stroke-width="1"/>
<line x1="71.6" y1="612.2" x2="127.6" y2="626.2" stroke="#4c7b99" stroke-opacity="0.21" stroke-width="1"/>
<line x1="71.6" y1="612.2" x2="21.0" y2="550.5" stroke="#4c6d99" stroke-opacity="0.10" stroke-width="1"/>
<line x1="880.2" y1="735.7" x2="913.8" y2="721.0" stroke="#4c6a99" stroke-opacity="0.32" stroke-width="1"/>
<line x1="880.2" y1="735.7" x2="871.3" y2="723.1" stroke="#514c99" stroke-opacity="0.42" stroke-width="1"/>
<line x1="880.2" y1="735.7" x2="899.4" y2="661.1" stroke="#4c6399" stroke-opacity="0.11" stroke-width="1"/>
<line x1="1092.4" y1="183.2" x2="1025.9" y2="185.4" stroke="#4c7899" stroke-opacity="0.17" stroke-width="1"/>
<line x1="1092.4" y1="183.2" x2="1186.1" y2="173.9" stroke="#4c6e99" stroke-opacity="0.03" stroke-width="1"/>
<line x1="1092.4" y1="183.2" x2="1043.3" y2="131.5" stroke="#4c6b99" stroke-opacity="0.14" stroke-width="1"/>
<line x1="1092.4" y1="183.2" x2="1010.2" y2="142.9" stroke="#4c6499" stroke-opacity="0.04" stroke-width="1"/>
<line x1="768.4" y1="115.6" x2="714.8" y2="119.0" stroke="#5e4c99" stroke-opacity="0.23" stroke-width="1"/>
<line x1="516.0" y1="89.7" x2="512.7" y2="89.9" stroke="#4c5899" stroke-opacity="0.48" stroke-width="1"/>
<line x1="516.0" y1="89.7" x2="474.3" y2="150.0" stroke="#4c7999" stroke-opacity="0.13" stroke-width="1"/>
<line x1="516.0" y1="89.7" x2="599.4" y2="66.5" stroke="#4c7399" stroke-opacity="0.07" stroke-width="1"/>
<line x1="516.0" y1="89.7" x2="483.9" y2="139.5" stroke="#4c6499" stroke-opacity="0.20" stroke-width="1"/>
<line x1="628.3" y1="104.3" x2="618.6" y2="68.2" stroke="#4c5999" stroke-opacity="0.31" stroke-width="1"/>
<line x1="628.3" y1="104.3" x2="637.1" y2="179.1" stroke="#4c7f99" stroke-opacity="0.12" stroke-width="1"/>
<line x1="628.3" y1="104.3" x2="599.4" y2="66.5" stroke="#4c7799" stroke-opacity="0.26" stroke-width="1"/>
<line x1="628.3" y1="104.3" x2="714.8" y2="119.0" stroke="#4c5b99" stroke-opacity="0.06" stroke-width="1"/>
<line x1="628.3" y1="104.3" x2="641.3" y2="80.3" stroke="#4c6299" stroke-opacity="0.36" stroke-width="1"/>
<line x1="177.0" y1="606.1" x2="127.6" y2="626.2" stroke="#4c6e99" stroke-opacity="0.23" stroke-width="1"/>
<line x1="177.0" y1="606.1" x2="141.7" y2="689.0" stroke="#4c7a99" stroke-opacity="0.05" stroke-width="1"/>
<line x1="994.5" y1="491.3" x2="1033.8" y2="454.7" stroke="#4c6699" stroke-opacity="0.23" stroke-width="1"/>
<line x1="994.5" y1="491.3" x2="917.6" y2="461.6" stroke="#4c5699" stroke-opacity="0.09" stroke-width="1"/>
<line x1="827.7" y1="282.5" x2="850.7" y2="190.1" stroke="#4c5099" stroke-opacity="0.02" stroke-width="1"/>
<line x1="827.7" y1="282.5" x2="898.5" y2="293.0" stroke="#4c5d99" stroke-opacity="0.14" stroke-width="1"/>
<line x1="827.7" y1="282.5" x2="803.1" y2="328.4" stroke="#4c8199" stroke-opacity="0.24" stroke-width="1"/>
<line x1="224.3" y1="457.5" x2="207.4" y2="471.5" stroke="#4c6c99" stroke-opacity="0.39" stroke-width="1"/>
<line x1="913.8" y1="721.0" x2="871.3" y2="723.1" stroke="#4c5c99" stroke-opacity="0.29" stroke-width="1"/>
<line x1="913.8" y1="721.0" x2="899.4" y2="661.1" stroke="#4c7899" stroke-opacity="0.19" stroke-width="1"/>
<line x1="871.3" y1="723.1" x2="899.4" y2="661.1" stroke="#4c5599" stroke-opacity="0.16" stroke-width="1"/>
<line x1="618.6" y1="68.2" x2="580.1" y2="1.1" stroke="#5d4c99" stroke-opacity="0.11" stroke-width="1"/>
<line x1="618.6" y1="68.2" x2="599.4" y2="66.5" stroke="#4c5499" stroke-opacity="0.40" stroke-width="1"/>
<line x1="618.6" y1="68.2" x2="641.3" y2="80.3" stroke="#594c99" stroke-opacity="0.37" stroke-width="1"/>
<line x1="440.3" y1="411.7" x2="468.7" y2="369.8" stroke="#4c6299" stroke-opacity="0.25" stroke-width="1"/>
<line x1="440.3" y1="411.7" x2="483.2" y2="477.3" stroke="#4c8899" stroke-opacity="0.11" stroke-width="1"/>
<line x1="361.1" y1="568.1" x2="392.0" y2="613.9" stroke="#4c5a99" stroke-opacity="0.22" stroke-width="1"/>
<line x1="512.7" y1="89.9" x2="474.3" y2="150.0" stroke="#4c5e99" stroke-opacity="0.14" stroke-width="1"/>
<line x1="512.7" y1="89.9" x2="599.4" y2="66.5" stroke="#4c5799" stroke-opacity="0.05" stroke-width="1"/>
<line x1="512.7" y1="89.9" x2="483.9" y2="139.5" stroke="#4f4c99" stroke-opacity="0.21" stroke-width="1"/>
<line x1="899.4" y1="661.1" x2="819.2" y2="608.3" stroke="#4c7499" stroke-opacity="0.02" stroke-width="1"/>
<line x1="564.0" y1="610.3" x2="567.4" y2="552.0" stroke="#4c5899" stroke-opacity="0.21" stroke-width="1"/>
<line x1="564.0" y1="610.3" x2="495.5" y2="648.8" stroke="#4c5b99" stroke-opacity="0.11" stroke-width="1"/>
<line x1="564.0" y1="610.3" x2="619.5" y2="545.8" stroke="#4c5a99" stroke-opacity="0.08" stroke-width="1"/>
<line x1="77.3" y1="303.0" x2="76.5" y2="238.5" stroke="#4c5899" stroke-opacity="0.18" stroke-width="1"/>
<line x1="77.3" y1="303.0" x2="102.8" y2="320.5" stroke="#4c6199" stroke-opacity="0.35" stroke-width="1"/>
<line x1="77.3" y1="303.0" x2="67.1" y2="222.4" stroke="#4c6999" stroke-opacity="0.09" stroke-width="1"/>
<line x1="580.1" y1="1.1" x2="599.4" y2="66.5" stroke="#4c5999" stroke-opacity="0.16" stroke-width="1"/>
<line x1="714.4" y1="412.0" x2="658.4" y2="347.2" stroke="#4c8399" stroke-opacity="0.07" stroke-width="1"/>
<line x1="1025.9" y1="185.4" x2="1043.3" y2="131.5" stroke="#4c5b99" stroke-opacity="0.22" stroke-width="1"/>
<line x1="1025.9" y1="185.4" x2="1010.2" y2="142.9" stroke="#4c5499" stroke-opacity="0.27" stroke-width="1"/>
<line x1="297.0" y1="382.8" x2="331.5" y2="465.9" stroke="#4c8599" stroke-opacity="0.05" stroke-width="1"/>
<line x1="468.7" y1="369.8" x2="388.6" y2="310.1" stroke="#594c99" stroke-opacity="0.00" stroke-width="1"/>
<line x1="1002.9" y1="302.0" x2="918.8" y2="332.5" stroke="#4c9199" stroke-opacity="0.05" stroke-width="1"/>
<line x1="1002.9" y1="302.0" x2="932.5" y2="307.4" stroke="#4c7099" stroke-opacity="0.15" stroke-width="1"/>
<line x1="474.3" y1="150.0" x2="483.9" y2="139.5" stroke="#4c6999" stroke-opacity="0.43" stroke-width="1"/>
<line x1="474.3" y1="150.0" x2="399.2" y2="155.6" stroke="#4c8299" stroke-opacity="0.12" stroke-width="1"/>
<line x1="474.3" y1="150.0" x2="413.2" y2="159.8" stroke="#4c6599" stroke-opacity="0.19" stroke-width="1"/>
<line x1="850.7" y1="190.1" x2="873.7" y2="117.7" stroke="#4d4c99" stroke-opacity="0.12" stroke-width="1"/>
<line x1="1162.0" y1="716.6" x2="1198.2" y2="717.9" stroke="#4c6499" stroke-opacity="0.32" stroke-width="1"/>
<line x1="483.2" y1="477.3" x2="558.4" y2="451.3" stroke="#4c7699" stroke-opacity="0.10" stroke-width="1"/>
<line x1="658.4" y1="347.2" x2="612.0" y2="418.7" stroke="#4c8799" stroke-opacity="0.07" stroke-width="1"/>
<line x1="658.4" y1="347.2" x2="648.9" y2="292.2" stroke="#4c5c99" stroke-opacity="0.22" stroke-width="1"/>
<line x1="76.5" y1="238.5" x2="102.8" y2="320.5" stroke="#4c6399" stroke-opacity="0.07" stroke-width="1"/>
<line x1="76.5" y1="238.5" x2="67.1" y2="222.4" stroke="#4c6c99" stroke-opacity="0.41" stroke-width="1"/>
<line x1="637.1" y1="179.1" x2="582.9" y2="236.1" stroke="#4c7199" stroke-opacity="0.11" stroke-width="1"/>
<line x1="637.1" y1="179.1" x2="714.8" y2="119.0" stroke="#4c5d99" stroke-opacity="0.01" stroke-width="1"/>
<line x1="637.1" y1="179.1" x2="675.0" y2="213.5" stroke="#4c6199" stroke-opacity="0.24" stroke-width="1"/>
<line x1="637.1" y1="179.1" x2="641.3" y2="80.3" stroke="#4c6499" stroke-opacity="0.01" stroke-width="1"/>
<line x1="612.0" y1="418.7" x2="558.4" y2="451.3" stroke="#4c7d99" stroke-opacity="0.19" stroke-width="1"/>
<line x1="582.9" y1="236.1" x2="675.0" y2="213.5" stroke="#4c5199" stroke-opacity="0.03" stroke-width="1"/>
<line x1="582.9" y1="236.1" x2="648.9" y2="292.2" stroke="#4c4e99" stroke-opacity="0.07" stroke-width="1"/>
<line x1="898.5" y1="293.0" x2="918.8" y2="332.5" stroke="#4c7099" stroke-opacity="0.28" stroke-width="1"/>
<line x1="898.5" y1="293.0" x2="932.5" y2="307.4" stroke="#4c4e99" stroke-opacity="0.32" stroke-width="1"/>
<line x1="127.6" y1="626.2" x2="141.7" y2="689.0" stroke="#4c7199" stroke-opacity="0.18" stroke-width="1"/>
<line x1="599.4" y1="66.5" x2="641.3" y2="80.3" stroke="#4c5c99" stroke-opacity="0.28" stroke-width="1"/>
<line x1="714.8" y1="119.0" x2="641.3" y2="80.3" stroke="#584c99" stroke-opacity="0.08" stroke-width="1"/>
<line x1="567.4" y1="552.0" x2="619.5" y2="545.8" stroke="#4c7299" stroke-opacity="0.24" stroke-width="1"/>
<line x1="1043.3" y1="131.5" x2="1010.2" y2="142.9" stroke="#524c99" stroke-opacity="0.32" stroke-width="1"/>
<line x1="483.9" y1="139.5" x2="399.2" y2="155.6" stroke="#4c6d99" stroke-opacity="0.07" stroke-width="1"/>
<line x1="483.9" y1="139.5" x2="413.2" y2="159.8" stroke="#4c5099" stroke-opacity="0.13" stroke-width="1"/>
<line x1="918.8" y1="332.5" x2="943.3" y2="404.3" stroke="#4c8b99" stroke-opacity="0.12" stroke-width="1"/>
<line x1="918.8" y1="332.5" x2="932.5" y2="307.4" stroke="#4c6d99" stroke-opacity="0.36" stroke-width="1"/>
<line x1="943.3" y1="404.3" x2="917.6" y2="461.6" stroke="#4c6e99" stroke-opacity="0.19" stroke-width="1"/>
<line x1="943.3" y1="404.3" x2="932.5" y2="307.4" stroke="#4c6a99" stroke-opacity="0.01" stroke-width="1"/>
<line x1="928.3" y1="77.4" x2="873.7" y2="117.7" stroke="#4c5f99" stroke-opacity="0.16" stroke-width="1"/>
<line x1="675.0" y1="213.5" x2="648.9" y2="292.2" stroke="#5a4c99" stroke-opacity="0.09" stroke-width="1"/>
<line x1="392.5" y1="68.4" x2="399.2" y2="155.6" stroke="#4c8999" stroke-opacity="0.06" stroke-width="1"/>
<line x1="392.5" y1="68.4" x2="413.2" y2="159.8" stroke="#4c6c99" stroke-opacity="0.03" stroke-width="1"/>
<line x1="495.5" y1="648.8" x2="491.5" y2="732.0" stroke="#4c8699" stroke-opacity="0.08" stroke-width="1"/>
<line x1="399.2" y1="155.6" x2="413.2" y2="159.8" stroke="#4c6999" stroke-opacity="0.43" stroke-width="1"/>
<line x1="491.5" y1="732.0" x2="577.6" y2="713.8" stroke="#4c8f99" stroke-opacity="0.06" stroke-width="1"/>
<circle cx="787.5" cy="446.5" r="4" fill="#3121a9" filter="url(#glow)"/>
<circle cx="787.5" cy="446.5" r="2" fill="#fff" opacity="0.8"/>
<circle cx="71.6" cy="612.2" r="4" fill="#176a73" filter="url(#glow)"/>
<circle cx="71.6" cy="612.2" r="2" fill="#fff" opacity="0.8"/>
<circle cx="880.2" cy="735.7" r="4" fill="#18247c" filter="url(#glow)"/>
<circle cx="880.2" cy="735.7" r="2" fill="#fff" opacity="0.8"/>
<circle cx="1092.4" cy="183.2" r="4" fill="#165f72" filter="url(#glow)"/>
<circle cx="1092.4" cy="183.2" r="2" fill="#fff" opacity="0.8"/>
<circle cx="768.4" cy="115.6" r="4" fill="#4825bb" filter="url(#glow)"/>
<circle cx="768.4" cy="115.6" r="2" fill="#fff" opacity="0.8"/>
<circle cx="516.0" cy="89.7" r="4" fill="#246fb4" filter="url(#glow)"/>
<circle cx="516.0" cy="89.7" r="2" fill="#fff" opacity="0.8"/>
<circle cx="628.3" cy="104.3" r="4" fill="#1a5e85" filter="url(#glow)"/>
<circle cx="628.3" cy="104.3" r="2" fill="#fff" opacity="0.8"/>
<circle cx="177.0" cy="606.1" r="4" fill="#1b5687" filter="url(#glow)"/>
<circle cx="177.0" cy="606.1" r="2" fill="#fff" opacity="0.8"/>
<circle cx="994.5" cy="491.3" r="4" fill="#263ebe" filter="url(#glow)"/>
<circle cx="994.5" cy="491.3" r="2" fill="#fff" opacity="0.8"/>
<circle cx="827.7" cy="282.5" r="4" fill="#173c76" filter="url(#glow)"/>
<circle cx="827.7" cy="282.5" r="2" fill="#fff" opacity="0.8"/>
<circle cx="224.3" cy="457.5" r="4" fill="#2666bf" filter="url(#glow)"/>
<circle cx="224.3" cy="457.5" r="2" fill="#fff" opacity="0.8"/>
<circle cx="913.8" cy="721.0" r="4" fill="#2485b7" filter="url(#glow)"/>
<circle cx="913.8" cy="721.0" r="2" fill="#fff" opacity="0.8"/>
<circle cx="871.3" cy="723.1" r="4" fill="#4b25bc" filter="url(#glow)"/>
<circle cx="871.3" cy="723.1" r="2" fill="#fff" opacity="0.8"/>
<circle cx="618.6" cy="68.2" r="4" fill="#4520a1" filter="url(#glow)"/>
<circle cx="618.6" cy="68.2" r="2" fill="#fff" opacity="0.8"/>
<circle cx="1139.6" cy="404.1" r="4" fill="#4226be" filter="url(#glow)"/>
<circle cx="1139.6" cy="404.1" r="2" fill="#fff" opacity="0.8"/>
<circle cx="440.3" cy="411.7" r="4" fill="#218da5" filter="url(#glow)"/>
<circle cx="440.3" cy="411.7" r="2" fill="#fff" opacity="0.8"/>
<circle cx="361.1" cy="568.1" r="4" fill="#3c1f9f" filter="url(#glow)"/>
<circle cx="361.1" cy="568.1" r="2" fill="#fff" opacity="0.8"/>
<circle cx="512.7" cy="89.9" r="4" fill="#4325bd" filter="url(#glow)"/>
<circle cx="512.7" cy="89.9" r="2" fill="#fff" opacity="0.8"/>
<circle cx="899.4" cy="661.1" r="4" fill="#2571bd" filter="url(#glow)"/>
<circle cx="899.4" cy="661.1" r="2" fill="#fff" opacity="0.8"/>
<circle cx="564.0" cy="610.3" r="4" fill="#3d26be" filter="url(#glow)"/>
<circle cx="564.0" cy="610.3" r="2" fill="#fff" opacity="0.8"/>
<circle cx="77.3" cy="303.0" r="4" fill="#172275" filter="url(#glow)"/>
<circle cx="77.3" cy="303.0" r="2" fill="#fff" opacity="0.8"/>
<circle cx="580.1" cy="1.1" r="4" fill="#2d1b88" filter="url(#glow)"/>
<circle cx="580.1" cy="1.1" r="2" fill="#fff" opacity="0.8"/>
<circle cx="714.4" cy="412.0" r="4" fill="#26a2be" filter="url(#glow)"/>
<circle cx="714.4" cy="412.0" r="2" fill="#fff" opacity="0.8"/>
<circle cx="1025.9" cy="185.4" r="4" fill="#173973" filter="url(#glow)"/>
<circle cx="1025.9" cy="185.4" r="2" fill="#fff" opacity="0.8"/>
<circle cx="297.0" cy="382.8" r="4" fill="#2485b8" filter="url(#glow)"/>
<circle cx="297.0" cy="382.8" r="2" fill="#fff" opacity="0.8"/>
<circle cx="468.7" cy="369.8" r="4" fill="#2f187b" filter="url(#glow)"/>
<circle cx="468.7" cy="369.8" r="2" fill="#fff" opacity="0.8"/>
<circle cx="1002.9" cy="302.0" r="4" fill="#24acb5" filter="url(#glow)"/>
<circle cx="1002.9" cy="302.0" r="2" fill="#fff" opacity="0.8"/>
<circle cx="273.2" cy="37.0" r="4" fill="#1b3a89" filter="url(#glow)"/>
<circle cx="273.2" cy="37.0" r="2" fill="#fff" opacity="0.8"/>
<circle cx="474.3" cy="150.0" r="4" fill="#2381b2" filter="url(#glow)"/>
<circle cx="474.3" cy="150.0" r="2" fill="#fff" opacity="0.8"/>
<circle cx="850.7" cy="190.1" r="4" fill="#431f9c" filter="url(#glow)"/>
<circle cx="850.7" cy="190.1" r="2" fill="#fff" opacity="0.8"/>
<circle cx="207.4" cy="471.5" r="4" fill="#1c4e90" filter="url(#glow)"/>
<circle cx="207.4" cy="471.5" r="2" fill="#fff" opacity="0.8"/>
<circle cx="1162.0" cy="716.6" r="4" fill="#214aa5" filter="url(#glow)"/>
<circle cx="1162.0" cy="716.6" r="2" fill="#fff" opacity="0.8"/>
<circle cx="483.2" cy="477.3" r="4" fill="#2490b7" filter="url(#glow)"/>
<circle cx="483.2" cy="477.3" r="2" fill="#fff" opacity="0.8"/>
<circle cx="392.0" cy="613.9" r="4" fill="#174e74" filter="url(#glow)"/>
<circle cx="392.0" cy="613.9" r="2" fill="#fff" opacity="0.8"/>
<circle cx="658.4" cy="347.2" r="4" fill="#2481b7" filter="url(#glow)"/>
<circle cx="658.4" cy="347.2" r="2" fill="#fff" opacity="0.8"/>
<circle cx="996.7" cy="600.1" r="4" fill="#165872" filter="url(#glow)"/>
<circle cx="996.7" cy="600.1" r="2" fill="#fff" opacity="0.8"/>
<circle cx="812.6" cy="465.8" r="4" fill="#172b73" filter="url(#glow)"/>
<circle cx="812.6" cy="465.8" r="2" fill="#fff" opacity="0.8"/>
<circle cx="76.5" cy="238.5" r="4" fill="#162872" filter="url(#glow)"/>
<circle cx="76.5" cy="238.5" r="2" fill="#fff" opacity="0.8"/>
<circle cx="1186.1" cy="173.9" r="4" fill="#1f2c9d" filter="url(#glow)"/>
<circle cx="1186.1" cy="173.9" r="2" fill="#fff" opacity="0.8"/>
<circle cx="1033.8" cy="454.7" r="4" fill="#2574bd" filter="url(#glow)"/>
<circle cx="1033.8" cy="454.7" r="2" fill="#fff" opacity="0.8"/>
<circle cx="637.1" cy="179.1" r="4" fill="#185d7a" filter="url(#glow)"/>
<circle cx="637.1" cy="179.1" r="2" fill="#fff" opacity="0.8"/>
<circle cx="331.5" cy="465.9" r="4" fill="#1a7182" filter="url(#glow)"/>
<circle cx="331.5" cy="465.9" r="2" fill="#fff" opacity="0.8"/>
<circle cx="612.0" cy="418.7" r="4" fill="#25acba" filter="url(#glow)"/>
<circle cx="612.0" cy="418.7" r="2" fill="#fff" opacity="0.8"/>
<circle cx="582.9" cy="236.1" r="4" fill="#19347e" filter="url(#glow)"/>
<circle cx="582.9" cy="236.1" r="2" fill="#fff" opacity="0.8"/>
<circle cx="898.5" cy="293.0" r="4" fill="#252eb9" filter="url(#glow)"/>
<circle cx="898.5" cy="293.0" r="2" fill="#fff" opacity="0.8"/>
<circle cx="127.6" cy="626.2" r="4" fill="#2454b5" filter="url(#glow)"/>
<circle cx="127.6" cy="626.2" r="2" fill="#fff" opacity="0.8"/>
<circle cx="141.7" cy="689.0" r="4" fill="#2584b9" filter="url(#glow)"/>
<circle cx="141.7" cy="689.0" r="2" fill="#fff" opacity="0.8"/>
<circle cx="262.9" cy="683.6" r="4" fill="#2355b3" filter="url(#glow)"/>
<circle cx="262.9" cy="683.6" r="2" fill="#fff" opacity="0.8"/>
<circle cx="599.4" cy="66.5" r="4" fill="#1c548e" filter="url(#glow)"/>
<circle cx="599.4" cy="66.5" r="2" fill="#fff" opacity="0.8"/>
<circle cx="714.8" cy="119.0" r="4" fill="#4925bb" filter="url(#glow)"/>
<circle cx="714.8" cy="119.0" r="2" fill="#fff" opacity="0.8"/>
<circle cx="803.1" cy="328.4" r="4" fill="#24b4b5" filter="url(#glow)"/>
<circle cx="803.1" cy="328.4" r="2" fill="#fff" opacity="0.8"/>
<circle cx="567.4" cy="552.0" r="4" fill="#246ab7" filter="url(#glow)"/>
<circle cx="567.4" cy="552.0" r="2" fill="#fff" opacity="0.8"/>
<circle cx="102.8" cy="320.5" r="4" fill="#1e539a" filter="url(#glow)"/>
<circle cx="102.8" cy="320.5" r="2" fill="#fff" opacity="0.8"/>
<circle cx="1043.3" cy="131.5" r="4" fill="#161872" filter="url(#glow)"/>
<circle cx="1043.3" cy="131.5" r="2" fill="#fff" opacity="0.8"/>
<circle cx="483.9" cy="139.5" r="4" fill="#1c288d" filter="url(#glow)"/>
<circle cx="483.9" cy="139.5" r="2" fill="#fff" opacity="0.8"/>
<circle cx="67.1" cy="222.4" r="4" fill="#175374" filter="url(#glow)"/>
<circle cx="67.1" cy="222.4" r="2" fill="#fff" opacity="0.8"/>
<circle cx="918.8" cy="332.5" r="4" fill="#2197a9" filter="url(#glow)"/>
<circle cx="918.8" cy="332.5" r="2" fill="#fff" opacity="0.8"/>
<circle cx="21.0" cy="550.5" r="4" fill="#2b26bf" filter="url(#glow)"/>
<circle cx="21.0" cy="550.5" r="2" fill="#fff" opacity="0.8"/>
<circle cx="1010.2" cy="142.9" r="4" fill="#311d95" filter="url(#glow)"/>
<circle cx="1010.2" cy="142.9" r="2" fill="#fff" opacity="0.8"/>
<circle cx="943.3" cy="404.3" r="4" fill="#1e7c96" filter="url(#glow)"/>
<circle cx="943.3" cy="404.3" r="2" fill="#fff" opacity="0.8"/>
<circle cx="928.3" cy="77.4" r="4" fill="#2345b0" filter="url(#glow)"/>
<circle cx="928.3" cy="77.4" r="2" fill="#fff" opacity="0.8"/>
<circle cx="675.0" cy="213.5" r="4" fill="#251776" filter="url(#glow)"/>
<circle cx="675.0" cy="213.5" r="2" fill="#fff" opacity="0.8"/>
<circle cx="392.5" cy="68.4" r="4" fill="#196e7f" filter="url(#glow)"/>
<circle cx="392.5" cy="68.4" r="2" fill="#fff" opacity="0.8"/>
<circle cx="917.6" cy="461.6" r="4" fill="#2535bd" filter="url(#glow)"/>
<circle cx="917.6" cy="461.6" r="2" fill="#fff" opacity="0.8"/>
<circle cx="495.5" cy="648.8" r="4" fill="#2372b2" filter="url(#glow)"/>
<circle cx="495.5" cy="648.8" r="2" fill="#fff" opacity="0.8"/>
<circle cx="648.9" cy="292.2" r="4" fill="#4625bc" filter="url(#glow)"/>
<circle cx="648.9" cy="292.2" r="2" fill="#fff" opacity="0.8"/>
<circle cx="723.8" cy="561.2" r="4" fill="#1b5a8a" filter="url(#glow)"/>
<circle cx="723.8" cy="561.2" r="2" fill="#fff" opacity="0.8"/>
<circle cx="399.2" cy="155.6" r="4" fill="#18627a" filter="url(#glow)"/>
<circle cx="399.2" cy="155.6" r="2" fill="#fff" opacity="0.8"/>
<circle cx="413.2" cy="159.8" r="4" fill="#1e1d94" filter="url(#glow)"/>
<circle cx="413.2" cy="159.8" r="2" fill="#fff" opacity="0.8"/>
<circle cx="388.6" cy="310.1" r="4" fill="#2b20a0" filter="url(#glow)"/>
<circle cx="388.6" cy="310.1" r="2" fill="#fff" opacity="0.8"/>
<circle cx="558.4" cy="451.3" r="4" fill="#2358b3" filter="url(#glow)"/>
<circle cx="558.4" cy="451.3" r="2" fill="#fff" opacity="0.8"/>
<circle cx="491.5" cy="732.0" r="4" fill="#197d81" filter="url(#glow)"/>
<circle cx="491.5" cy="732.0" r="2" fill="#fff" opacity="0.8"/>
<circle cx="932.5" cy="307.4" r="4" fill="#2120a0" filter="url(#glow)"/>
<circle cx="932.5" cy="307.4" r="2" fill="#fff" opacity="0.8"/>
<circle cx="641.3" cy="80.3" r="4" fill="#1c1773" filter="url(#glow)"/>
<circle cx="641.3" cy="80.3" r="2" fill="#fff" opacity="0.8"/>
<circle cx="619.5" cy="545.8" r="4" fill="#174976" filter="url(#glow)"/>
<circle cx="619.5" cy="545.8" r="2" fill="#fff" opacity="0.8"/>
<circle cx="577.6" cy="713.8" r="4" fill="#2292ad" filter="url(#glow)"/>
<circle cx="577.6" cy="713.8" r="2" fill="#fff" opacity="0.8"/>
<circle cx="233.5" cy="250.1" r="4" fill="#172a73" filter="url(#glow)"/>
<circle cx="233.5" cy="250.1" r="2" fill="#fff" opacity="0.8"/>
<circle cx="1198.2" cy="717.9" r="4" fill="#1e4497" filter="url(#glow)"/>
<circle cx="1198.2" cy="717.9" r="2" fill="#fff" opacity="0.8"/>
<circle cx="873.7" cy="117.7" r="4" fill="#183178" filter="url(#glow)"/>
<circle cx="873.7" cy="117.7" r="2" fill="#fff" opacity="0.8"/>
<circle cx="819.2" cy="608.3" r="4" fill="#1a5584" filter="url(#glow)"/>
<circle cx="819.2" cy="608.3" r="2" fill="#fff" opacity="0.8"/>
<text x="20" y="30" fill="#668" font-family="monospace" font-size="14">t=0: Pure chaos. Random positions, random velocities.</text>
</svg>