<svg xmlns="http://www.w3.org/2000/svg" viewBox="0 0 1200 750">
<rect width="1200" height="750" fill="#050508"/>
<defs>
  <filter id="glow"><feGaussianBlur stdDeviation="3" result="b"/>
    <feMerge><feMergeNode in="b"/><feMergeNode in="SourceGraphic"/></feMerge>
  </filter>
</defs>
<line x1="786.4" y1="447.4" x2="713.4" y2="418.1" stroke="#4c6799" stroke-opacity="0.11" stroke-width="1"/>
<line x1="786.4" y1="447.4" x2="799.7" y2="448.1" stroke="#4c5099" stroke-opacity="0.43" stroke-width="1"/>
<line x1="99.3" y1="606.3" x2="140.3" y2="623.8" stroke="#4c8499" stroke-opacity="0.28" stroke-width="1"/>
<line x1="99.3" y1="606.3" x2="128.9" y2="621.0" stroke="#4c7b99" stroke-opacity="0.33" stroke-width="1"/>
<line x1="99.3" y1="606.3" x2="150.3" y2="659.1" stroke="#4c8799" stroke-opacity="0.13" stroke-width="1"/>
<line x1="99.3" y1="606.3" x2="43.1" y2="553.4" stroke="#4c6d99" stroke-opacity="0.11" stroke-width="1"/>
<line x1="881.4" y1="722.3" x2="893.8" y2="713.4" stroke="#4c6a99" stroke-opacity="0.42" stroke-width="1"/>
<line x1="881.4" y1="722.3" x2="886.4" y2="704.7" stroke="#514c99" stroke-opacity="0.41" stroke-width="1"/>
<line x1="881.4" y1="722.3" x2="882.2" y2="701.8" stroke="#4c6399" stroke-opacity="0.40" stroke-width="1"/>
<line x1="1076.9" y1="169.0" x2="1035.5" y2="158.5" stroke="#4c7899" stroke-opacity="0.29" stroke-width="1"/>
<line x1="1076.9" y1="169.0" x2="1035.9" y2="151.4" stroke="#4c6b99" stroke-opacity="0.28" stroke-width="1"/>
<line x1="1076.9" y1="169.0" x2="1025.2" y2="147.3" stroke="#4c6499" stroke-opacity="0.22" stroke-width="1"/>
<line x1="762.3" y1="116.7" x2="692.5" y2="118.6" stroke="#5e4c99" stroke-opacity="0.15" stroke-width="1"/>
<line x1="558.2" y1="92.3" x2="617.1" y2="93.1" stroke="#4c7899" stroke-opacity="0.21" stroke-width="1"/>
<line x1="558.2" y1="92.3" x2="607.7" y2="84.1" stroke="#4c5599" stroke-opacity="0.25" stroke-width="1"/>
<line x1="558.2" y1="92.3" x2="482.3" y2="123.6" stroke="#4c5899" stroke-opacity="0.09" stroke-width="1"/>
<line x1="558.2" y1="92.3" x2="598.9" y2="66.0" stroke="#4c5a99" stroke-opacity="0.26" stroke-width="1"/>
<line x1="558.2" y1="92.3" x2="599.0" y2="79.7" stroke="#4c7399" stroke-opacity="0.29" stroke-width="1"/>
<line x1="558.2" y1="92.3" x2="467.6" y2="120.7" stroke="#4c6499" stroke-opacity="0.03" stroke-width="1"/>
<line x1="558.2" y1="92.3" x2="623.3" y2="76.6" stroke="#4c5d99" stroke-opacity="0.16" stroke-width="1"/>
<line x1="617.1" y1="93.1" x2="607.7" y2="84.1" stroke="#4c5999" stroke-opacity="0.43" stroke-width="1"/>
<line x1="617.1" y1="93.1" x2="598.9" y2="66.0" stroke="#4c5e99" stroke-opacity="0.34" stroke-width="1"/>
<line x1="617.1" y1="93.1" x2="644.2" y2="152.9" stroke="#4c7f99" stroke-opacity="0.17" stroke-width="1"/>
<line x1="617.1" y1="93.1" x2="599.0" y2="79.7" stroke="#4c7799" stroke-opacity="0.39" stroke-width="1"/>
<line x1="617.1" y1="93.1" x2="692.5" y2="118.6" stroke="#4c5b99" stroke-opacity="0.10" stroke-width="1"/>
<line x1="617.1" y1="93.1" x2="623.3" y2="76.6" stroke="#4c6299" stroke-opacity="0.41" stroke-width="1"/>
<line x1="140.3" y1="623.8" x2="128.9" y2="621.0" stroke="#4c6e99" stroke-opacity="0.44" stroke-width="1"/>
<line x1="140.3" y1="623.8" x2="150.3" y2="659.1" stroke="#4c7a99" stroke-opacity="0.32" stroke-width="1"/>
<line x1="990.6" y1="483.0" x2="1013.7" y2="460.6" stroke="#4c6699" stroke-opacity="0.34" stroke-width="1"/>
<line x1="990.6" y1="483.0" x2="940.2" y2="400.9" stroke="#4c7099" stroke-opacity="0.02" stroke-width="1"/>
<line x1="990.6" y1="483.0" x2="924.7" y2="444.6" stroke="#4c5699" stroke-opacity="0.12" stroke-width="1"/>
<line x1="845.9" y1="294.2" x2="915.0" y2="308.8" stroke="#4c5d99" stroke-opacity="0.15" stroke-width="1"/>
<line x1="845.9" y1="294.2" x2="825.5" y2="322.0" stroke="#4c8199" stroke-opacity="0.33" stroke-width="1"/>
<line x1="845.9" y1="294.2" x2="905.0" y2="329.7" stroke="#4c7c99" stroke-opacity="0.16" stroke-width="1"/>
<line x1="845.9" y1="294.2" x2="924.7" y2="325.2" stroke="#4c5a99" stroke-opacity="0.08" stroke-width="1"/>
<line x1="240.5" y1="455.2" x2="306.1" y2="387.2" stroke="#4c7599" stroke-opacity="0.03" stroke-width="1"/>
<line x1="240.5" y1="455.2" x2="222.3" y2="457.1" stroke="#4c6c99" stroke-opacity="0.41" stroke-width="1"/>
<line x1="240.5" y1="455.2" x2="309.8" y2="451.1" stroke="#4c7c99" stroke-opacity="0.15" stroke-width="1"/>
<line x1="893.8" y1="713.4" x2="886.4" y2="704.7" stroke="#4c5c99" stroke-opacity="0.44" stroke-width="1"/>
<line x1="893.8" y1="713.4" x2="882.2" y2="701.8" stroke="#4c7899" stroke-opacity="0.42" stroke-width="1"/>
<line x1="886.4" y1="704.7" x2="882.2" y2="701.8" stroke="#4c5599" stroke-opacity="0.47" stroke-width="1"/>
<line x1="607.7" y1="84.1" x2="598.9" y2="66.0" stroke="#5d4c99" stroke-opacity="0.40" stroke-width="1"/>
<line x1="607.7" y1="84.1" x2="644.2" y2="152.9" stroke="#4c5c99" stroke-opacity="0.11" stroke-width="1"/>
<line x1="607.7" y1="84.1" x2="599.0" y2="79.7" stroke="#4c5499" stroke-opacity="0.45" stroke-width="1"/>
<line x1="607.7" y1="84.1" x2="692.5" y2="118.6" stroke="#604c99" stroke-opacity="0.04" stroke-width="1"/>
<line x1="607.7" y1="84.1" x2="623.3" y2="76.6" stroke="#594c99" stroke-opacity="0.41" stroke-width="1"/>
<line x1="444.4" y1="403.3" x2="459.6" y2="394.8" stroke="#4c6299" stroke-opacity="0.41" stroke-width="1"/>
<line x1="444.4" y1="403.3" x2="486.5" y2="461.4" stroke="#4c8899" stroke-opacity="0.14" stroke-width="1"/>
<line x1="373.3" y1="578.5" x2="387.7" y2="607.0" stroke="#4c5a99" stroke-opacity="0.34" stroke-width="1"/>
<line x1="482.3" y1="123.6" x2="458.8" y2="129.2" stroke="#4c5e99" stroke-opacity="0.38" stroke-width="1"/>
<line x1="482.3" y1="123.6" x2="467.6" y2="120.7" stroke="#4f4c99" stroke-opacity="0.42" stroke-width="1"/>
<line x1="482.3" y1="123.6" x2="419.2" y2="107.4" stroke="#4c6499" stroke-opacity="0.17" stroke-width="1"/>
<line x1="482.3" y1="123.6" x2="436.9" y2="132.0" stroke="#4c6199" stroke-opacity="0.27" stroke-width="1"/>
<line x1="482.3" y1="123.6" x2="452.1" y2="135.6" stroke="#534c99" stroke-opacity="0.34" stroke-width="1"/>
<line x1="559.8" y1="593.2" x2="566.1" y2="565.2" stroke="#4c5899" stroke-opacity="0.36" stroke-width="1"/>
<line x1="559.8" y1="593.2" x2="498.3" y2="649.1" stroke="#4c5b99" stroke-opacity="0.08" stroke-width="1"/>
<line x1="559.8" y1="593.2" x2="608.0" y2="548.1" stroke="#4c5a99" stroke-opacity="0.17" stroke-width="1"/>
<line x1="76.0" y1="286.0" x2="70.5" y2="257.4" stroke="#4c5899" stroke-opacity="0.35" stroke-width="1"/>
<line x1="76.0" y1="286.0" x2="86.6" y2="296.6" stroke="#4c6199" stroke-opacity="0.43" stroke-width="1"/>
<line x1="76.0" y1="286.0" x2="66.9" y2="240.4" stroke="#4c6999" stroke-opacity="0.27" stroke-width="1"/>
<line x1="598.9" y1="66.0" x2="644.2" y2="152.9" stroke="#4c6199" stroke-opacity="0.01" stroke-width="1"/>
<line x1="598.9" y1="66.0" x2="599.0" y2="79.7" stroke="#4c5999" stroke-opacity="0.43" stroke-width="1"/>
<line x1="598.9" y1="66.0" x2="623.3" y2="76.6" stroke="#554c99" stroke-opacity="0.37" stroke-width="1"/>
<line x1="713.4" y1="418.1" x2="799.7" y2="448.1" stroke="#4c7499" stroke-opacity="0.04" stroke-width="1"/>
<line x1="713.4" y1="418.1" x2="625.4" y2="419.7" stroke="#4c8e99" stroke-opacity="0.06" stroke-width="1"/>
<line x1="1035.5" y1="158.5" x2="1035.9" y2="151.4" stroke="#4c5b99" stroke-opacity="0.46" stroke-width="1"/>
<line x1="1035.5" y1="158.5" x2="1025.2" y2="147.3" stroke="#4c5499" stroke-opacity="0.42" stroke-width="1"/>
<line x1="306.1" y1="387.2" x2="309.8" y2="451.1" stroke="#4c8599" stroke-opacity="0.18" stroke-width="1"/>
<line x1="459.6" y1="394.8" x2="486.5" y2="461.4" stroke="#4c5f99" stroke-opacity="0.14" stroke-width="1"/>
<line x1="972.8" y1="305.1" x2="915.0" y2="308.8" stroke="#4c7299" stroke-opacity="0.21" stroke-width="1"/>
<line x1="972.8" y1="305.1" x2="905.0" y2="329.7" stroke="#4c9199" stroke-opacity="0.14" stroke-width="1"/>
<line x1="972.8" y1="305.1" x2="924.7" y2="325.2" stroke="#4c7099" stroke-opacity="0.24" stroke-width="1"/>
<line x1="458.8" y1="129.2" x2="467.6" y2="120.7" stroke="#4c6999" stroke-opacity="0.44" stroke-width="1"/>
<line x1="458.8" y1="129.2" x2="419.2" y2="107.4" stroke="#4c8599" stroke-opacity="0.27" stroke-width="1"/>
<line x1="458.8" y1="129.2" x2="436.9" y2="132.0" stroke="#4c8299" stroke-opacity="0.39" stroke-width="1"/>
<line x1="458.8" y1="129.2" x2="452.1" y2="135.6" stroke="#4c6599" stroke-opacity="0.45" stroke-width="1"/>
<line x1="844.5" y1="178.4" x2="888.5" y2="113.8" stroke="#4d4c99" stroke-opacity="0.11" stroke-width="1"/>
<line x1="222.3" y1="457.1" x2="309.8" y2="451.1" stroke="#4c7c99" stroke-opacity="0.06" stroke-width="1"/>
<line x1="1173.3" y1="728.1" x2="1181.0" y2="710.2" stroke="#4c6499" stroke-opacity="0.40" stroke-width="1"/>
<line x1="486.5" y1="461.4" x2="548.5" y2="457.9" stroke="#4c7699" stroke-opacity="0.19" stroke-width="1"/>
<line x1="653.8" y1="335.8" x2="625.4" y2="419.7" stroke="#4c8799" stroke-opacity="0.06" stroke-width="1"/>
<line x1="653.8" y1="335.8" x2="648.5" y2="299.4" stroke="#4c5c99" stroke-opacity="0.32" stroke-width="1"/>
<line x1="70.5" y1="257.4" x2="86.6" y2="296.6" stroke="#4c6399" stroke-opacity="0.29" stroke-width="1"/>
<line x1="70.5" y1="257.4" x2="66.9" y2="240.4" stroke="#4c6c99" stroke-opacity="0.41" stroke-width="1"/>
<line x1="1013.7" y1="460.6" x2="940.2" y2="400.9" stroke="#4c7e99" stroke-opacity="0.03" stroke-width="1"/>
<line x1="1013.7" y1="460.6" x2="924.7" y2="444.6" stroke="#4c6499" stroke-opacity="0.05" stroke-width="1"/>
<line x1="644.2" y1="152.9" x2="607.4" y2="224.4" stroke="#4c7199" stroke-opacity="0.10" stroke-width="1"/>
<line x1="644.2" y1="152.9" x2="599.0" y2="79.7" stroke="#4c7999" stroke-opacity="0.07" stroke-width="1"/>
<line x1="644.2" y1="152.9" x2="692.5" y2="118.6" stroke="#4c5d99" stroke-opacity="0.20" stroke-width="1"/>
<line x1="644.2" y1="152.9" x2="662.6" y2="212.0" stroke="#4c6199" stroke-opacity="0.19" stroke-width="1"/>
<line x1="644.2" y1="152.9" x2="623.3" y2="76.6" stroke="#4c6499" stroke-opacity="0.10" stroke-width="1"/>
<line x1="625.4" y1="419.7" x2="548.5" y2="457.9" stroke="#4c7d99" stroke-opacity="0.07" stroke-width="1"/>
<line x1="607.4" y1="224.4" x2="662.6" y2="212.0" stroke="#4c5199" stroke-opacity="0.22" stroke-width="1"/>
<line x1="607.4" y1="224.4" x2="648.5" y2="299.4" stroke="#4c4e99" stroke-opacity="0.07" stroke-width="1"/>
<line x1="915.0" y1="308.8" x2="825.5" y2="322.0" stroke="#4c7499" stroke-opacity="0.05" stroke-width="1"/>
<line x1="915.0" y1="308.8" x2="905.0" y2="329.7" stroke="#4c7099" stroke-opacity="0.38" stroke-width="1"/>
<line x1="915.0" y1="308.8" x2="940.2" y2="400.9" stroke="#4c6c99" stroke-opacity="0.02" stroke-width="1"/>
<line x1="915.0" y1="308.8" x2="924.7" y2="325.2" stroke="#4c4e99" stroke-opacity="0.40" stroke-width="1"/>
<line x1="128.9" y1="621.0" x2="150.3" y2="659.1" stroke="#4c7199" stroke-opacity="0.28" stroke-width="1"/>
<line x1="150.3" y1="659.1" x2="243.2" y2="686.8" stroke="#4c7299" stroke-opacity="0.02" stroke-width="1"/>
<line x1="599.0" y1="79.7" x2="623.3" y2="76.6" stroke="#4c5c99" stroke-opacity="0.38" stroke-width="1"/>
<line x1="692.5" y1="118.6" x2="662.6" y2="212.0" stroke="#5b4c99" stroke-opacity="0.01" stroke-width="1"/>
<line x1="692.5" y1="118.6" x2="623.3" y2="76.6" stroke="#584c99" stroke-opacity="0.10" stroke-width="1"/>
<line x1="825.5" y1="322.0" x2="905.0" y2="329.7" stroke="#4c9399" stroke-opacity="0.10" stroke-width="1"/>
<line x1="825.5" y1="322.0" x2="924.7" y2="325.2" stroke="#4c7199" stroke-opacity="0.00" stroke-width="1"/>
<line x1="566.1" y1="565.2" x2="608.0" y2="548.1" stroke="#4c7299" stroke-opacity="0.27" stroke-width="1"/>
<line x1="86.6" y1="296.6" x2="66.9" y2="240.4" stroke="#4c7599" stroke-opacity="0.20" stroke-width="1"/>
<line x1="1035.9" y1="151.4" x2="1025.2" y2="147.3" stroke="#524c99" stroke-opacity="0.44" stroke-width="1"/>
<line x1="467.6" y1="120.7" x2="419.2" y2="107.4" stroke="#4c7099" stroke-opacity="0.25" stroke-width="1"/>
<line x1="467.6" y1="120.7" x2="436.9" y2="132.0" stroke="#4c6d99" stroke-opacity="0.34" stroke-width="1"/>
<line x1="467.6" y1="120.7" x2="452.1" y2="135.6" stroke="#4c5099" stroke-opacity="0.39" stroke-width="1"/>
<line x1="905.0" y1="329.7" x2="940.2" y2="400.9" stroke="#4c8b99" stroke-opacity="0.10" stroke-width="1"/>
<line x1="905.0" y1="329.7" x2="924.7" y2="325.2" stroke="#4c6d99" stroke-opacity="0.40" stroke-width="1"/>
<line x1="940.2" y1="400.9" x2="924.7" y2="444.6" stroke="#4c6e99" stroke-opacity="0.27" stroke-width="1"/>
<line x1="940.2" y1="400.9" x2="924.7" y2="325.2" stroke="#4c6a99" stroke-opacity="0.11" stroke-width="1"/>
<line x1="913.9" y1="105.6" x2="888.5" y2="113.8" stroke="#4c5f99" stroke-opacity="0.37" stroke-width="1"/>
<line x1="662.6" y1="212.0" x2="648.5" y2="299.4" stroke="#5a4c99" stroke-opacity="0.06" stroke-width="1"/>
<line x1="419.2" y1="107.4" x2="436.9" y2="132.0" stroke="#4c8999" stroke-opacity="0.35" stroke-width="1"/>
<line x1="419.2" y1="107.4" x2="452.1" y2="135.6" stroke="#4c6c99" stroke-opacity="0.28" stroke-width="1"/>
<line x1="498.3" y1="649.1" x2="505.9" y2="719.7" stroke="#4c8699" stroke-opacity="0.14" stroke-width="1"/>
<line x1="498.3" y1="649.1" x2="566.6" y2="704.4" stroke="#4c8099" stroke-opacity="0.06" stroke-width="1"/>
<line x1="436.9" y1="132.0" x2="452.1" y2="135.6" stroke="#4c6999" stroke-opacity="0.42" stroke-width="1"/>
<line x1="505.9" y1="719.7" x2="566.6" y2="704.4" stroke="#4c8f99" stroke-opacity="0.19" stroke-width="1"/>
<circle cx="786.4" cy="447.4" r="4" fill="#3826bf" filter="url(#glow)"/>
<circle cx="786.4" cy="447.4" r="2" fill="#fff" opacity="0.8"/>
<circle cx="99.3" cy="606.3" r="4" fill="#1d8894" filter="url(#glow)"/>
<circle cx="99.3" cy="606.3" r="2" fill="#fff" opacity="0.8"/>
<circle cx="881.4" cy="722.3" r="4" fill="#2131a6" filter="url(#glow)"/>
<circle cx="881.4" cy="722.3" r="2" fill="#fff" opacity="0.8"/>
<circle cx="1076.9" cy="169.0" r="4" fill="#1b7289" filter="url(#glow)"/>
<circle cx="1076.9" cy="169.0" r="2" fill="#fff" opacity="0.8"/>
<circle cx="762.3" cy="116.7" r="4" fill="#391d95" filter="url(#glow)"/>
<circle cx="762.3" cy="116.7" r="2" fill="#fff" opacity="0.8"/>
<circle cx="558.2" cy="92.3" r="4" fill="#2573bb" filter="url(#glow)"/>
<circle cx="558.2" cy="92.3" r="2" fill="#fff" opacity="0.8"/>
<circle cx="617.1" cy="93.1" r="4" fill="#237cb0" filter="url(#glow)"/>
<circle cx="617.1" cy="93.1" r="2" fill="#fff" opacity="0.8"/>
<circle cx="140.3" cy="623.8" r="4" fill="#174973" filter="url(#glow)"/>
<circle cx="140.3" cy="623.8" r="2" fill="#fff" opacity="0.8"/>
<circle cx="990.6" cy="483.0" r="4" fill="#2034a0" filter="url(#glow)"/>
<circle cx="990.6" cy="483.0" r="2" fill="#fff" opacity="0.8"/>
<circle cx="845.9" cy="294.2" r="4" fill="#193f7d" filter="url(#glow)"/>
<circle cx="845.9" cy="294.2" r="2" fill="#fff" opacity="0.8"/>
<circle cx="240.5" cy="455.2" r="4" fill="#225baa" filter="url(#glow)"/>
<circle cx="240.5" cy="455.2" r="2" fill="#fff" opacity="0.8"/>
<circle cx="893.8" cy="713.4" r="4" fill="#1c678e" filter="url(#glow)"/>
<circle cx="893.8" cy="713.4" r="2" fill="#fff" opacity="0.8"/>
<circle cx="886.4" cy="704.7" r="4" fill="#4823b3" filter="url(#glow)"/>
<circle cx="886.4" cy="704.7" r="2" fill="#fff" opacity="0.8"/>
<circle cx="607.7" cy="84.1" r="4" fill="#5226be" filter="url(#glow)"/>
<circle cx="607.7" cy="84.1" r="2" fill="#fff" opacity="0.8"/>
<circle cx="1128.8" cy="417.2" r="4" fill="#3820a1" filter="url(#glow)"/>
<circle cx="1128.8" cy="417.2" r="2" fill="#fff" opacity="0.8"/>
<circle cx="444.4" cy="403.3" r="4" fill="#26a4bf" filter="url(#glow)"/>
<circle cx="444.4" cy="403.3" r="2" fill="#fff" opacity="0.8"/>
<circle cx="373.3" cy="578.5" r="4" fill="#4826be" filter="url(#glow)"/>
<circle cx="373.3" cy="578.5" r="2" fill="#fff" opacity="0.8"/>
<circle cx="482.3" cy="123.6" r="4" fill="#3e23b0" filter="url(#glow)"/>
<circle cx="482.3" cy="123.6" r="2" fill="#fff" opacity="0.8"/>
<circle cx="882.2" cy="701.8" r="4" fill="#2369b0" filter="url(#glow)"/>
<circle cx="882.2" cy="701.8" r="2" fill="#fff" opacity="0.8"/>
<circle cx="559.8" cy="593.2" r="4" fill="#3622ab" filter="url(#glow)"/>
<circle cx="559.8" cy="593.2" r="2" fill="#fff" opacity="0.8"/>
<circle cx="76.0" cy="286.0" r="4" fill="#19257f" filter="url(#glow)"/>
<circle cx="76.0" cy="286.0" r="2" fill="#fff" opacity="0.8"/>
<circle cx="598.9" cy="66.0" r="4" fill="#251672" filter="url(#glow)"/>
<circle cx="598.9" cy="66.0" r="2" fill="#fff" opacity="0.8"/>
<circle cx="713.4" cy="418.1" r="4" fill="#2294ad" filter="url(#glow)"/>
<circle cx="713.4" cy="418.1" r="2" fill="#fff" opacity="0.8"/>
<circle cx="1035.5" cy="158.5" r="4" fill="#1c4790" filter="url(#glow)"/>
<circle cx="1035.5" cy="158.5" r="2" fill="#fff" opacity="0.8"/>
<circle cx="306.1" cy="387.2" r="4" fill="#2485b8" filter="url(#glow)"/>
<circle cx="306.1" cy="387.2" r="2" fill="#fff" opacity="0.8"/>
<circle cx="459.6" cy="394.8" r="4" fill="#2e1777" filter="url(#glow)"/>
<circle cx="459.6" cy="394.8" r="2" fill="#fff" opacity="0.8"/>
<circle cx="972.8" cy="305.1" r="4" fill="#25b1ba" filter="url(#glow)"/>
<circle cx="972.8" cy="305.1" r="2" fill="#fff" opacity="0.8"/>
<circle cx="286.8" cy="44.3" r="4" fill="#163172" filter="url(#glow)"/>
<circle cx="286.8" cy="44.3" r="2" fill="#fff" opacity="0.8"/>
<circle cx="458.8" cy="129.2" r="4" fill="#1b6287" filter="url(#glow)"/>
<circle cx="458.8" cy="129.2" r="2" fill="#fff" opacity="0.8"/>
<circle cx="844.5" cy="178.4" r="4" fill="#5125bd" filter="url(#glow)"/>
<circle cx="844.5" cy="178.4" r="2" fill="#fff" opacity="0.8"/>
<circle cx="222.3" cy="457.1" r="4" fill="#173e73" filter="url(#glow)"/>
<circle cx="222.3" cy="457.1" r="2" fill="#fff" opacity="0.8"/>
<circle cx="1173.3" cy="728.1" r="4" fill="#18377b" filter="url(#glow)"/>
<circle cx="1173.3" cy="728.1" r="2" fill="#fff" opacity="0.8"/>
<circle cx="486.5" cy="461.4" r="4" fill="#2593b9" filter="url(#glow)"/>
<circle cx="486.5" cy="461.4" r="2" fill="#fff" opacity="0.8"/>
<circle cx="387.7" cy="607.0" r="4" fill="#1d6494" filter="url(#glow)"/>
<circle cx="387.7" cy="607.0" r="2" fill="#fff" opacity="0.8"/>
<circle cx="653.8" cy="335.8" r="4" fill="#1c648f" filter="url(#glow)"/>
<circle cx="653.8" cy="335.8" r="2" fill="#fff" opacity="0.8"/>
<circle cx="994.7" cy="588.2" r="4" fill="#1b6a8a" filter="url(#glow)"/>
<circle cx="994.7" cy="588.2" r="2" fill="#fff" opacity="0.8"/>
<circle cx="799.7" cy="448.1" r="4" fill="#1a3286" filter="url(#glow)"/>
<circle cx="799.7" cy="448.1" r="2" fill="#fff" opacity="0.8"/>
<circle cx="70.5" cy="257.4" r="4" fill="#1c318c" filter="url(#glow)"/>
<circle cx="70.5" cy="257.4" r="2" fill="#fff" opacity="0.8"/>
<circle cx="1181.5" cy="171.4" r="4" fill="#2536bd" filter="url(#glow)"/>
<circle cx="1181.5" cy="171.4" r="2" fill="#fff" opacity="0.8"/>
<circle cx="1013.7" cy="460.6" r="4" fill="#1e5f9a" filter="url(#glow)"/>
<circle cx="1013.7" cy="460.6" r="2" fill="#fff" opacity="0.8"/>
<circle cx="644.2" cy="152.9" r="4" fill="#207ca4" filter="url(#glow)"/>
<circle cx="644.2" cy="152.9" r="2" fill="#fff" opacity="0.8"/>
<circle cx="309.8" cy="451.1" r="4" fill="#2297ad" filter="url(#glow)"/>
<circle cx="309.8" cy="451.1" r="2" fill="#fff" opacity="0.8"/>
<circle cx="625.4" cy="419.7" r="4" fill="#24a8b6" filter="url(#glow)"/>
<circle cx="625.4" cy="419.7" r="2" fill="#fff" opacity="0.8"/>
<circle cx="607.4" cy="224.4" r="4" fill="#173175" filter="url(#glow)"/>
<circle cx="607.4" cy="224.4" r="2" fill="#fff" opacity="0.8"/>
<circle cx="915.0" cy="308.8" r="4" fill="#1d2492" filter="url(#glow)"/>
<circle cx="915.0" cy="308.8" r="2" fill="#fff" opacity="0.8"/>
<circle cx="128.9" cy="621.0" r="4" fill="#2556ba" filter="url(#glow)"/>
<circle cx="128.9" cy="621.0" r="2" fill="#fff" opacity="0.8"/>
<circle cx="150.3" cy="659.1" r="4" fill="#2482b7" filter="url(#glow)"/>
<circle cx="150.3" cy="659.1" r="2" fill="#fff" opacity="0.8"/>
<circle cx="243.2" cy="686.8" r="4" fill="#2559bc" filter="url(#glow)"/>
<circle cx="243.2" cy="686.8" r="2" fill="#fff" opacity="0.8"/>
<circle cx="599.0" cy="79.7" r="4" fill="#164372" filter="url(#glow)"/>
<circle cx="599.0" cy="79.7" r="2" fill="#fff" opacity="0.8"/>
<circle cx="692.5" cy="118.6" r="4" fill="#3b1e97" filter="url(#glow)"/>
<circle cx="692.5" cy="118.6" r="2" fill="#fff" opacity="0.8"/>
<circle cx="825.5" cy="322.0" r="4" fill="#25b9ba" filter="url(#glow)"/>
<circle cx="825.5" cy="322.0" r="2" fill="#fff" opacity="0.8"/>
<circle cx="566.1" cy="565.2" r="4" fill="#1c528d" filter="url(#glow)"/>
<circle cx="566.1" cy="565.2" r="2" fill="#fff" opacity="0.8"/>
<circle cx="86.6" cy="296.6" r="4" fill="#2565bd" filter="url(#glow)"/>
<circle cx="86.6" cy="296.6" r="2" fill="#fff" opacity="0.8"/>
<circle cx="1035.9" cy="151.4" r="4" fill="#1b1d8a" filter="url(#glow)"/>
<circle cx="1035.9" cy="151.4" r="2" fill="#fff" opacity="0.8"/>
<circle cx="467.6" cy="120.7" r="4" fill="#162072" filter="url(#glow)"/>
<circle cx="467.6" cy="120.7" r="2" fill="#fff" opacity="0.8"/>
<circle cx="66.9" cy="240.4" r="4" fill="#1a5d82" filter="url(#glow)"/>
<circle cx="66.9" cy="240.4" r="2" fill="#fff" opacity="0.8"/>
<circle cx="905.0" cy="329.7" r="4" fill="#19717f" filter="url(#glow)"/>
<circle cx="905.0" cy="329.7" r="2" fill="#fff" opacity="0.8"/>
<circle cx="43.1" cy="553.4" r="4" fill="#2621a7" filter="url(#glow)"/>
<circle cx="43.1" cy="553.4" r="2" fill="#fff" opacity="0.8"/>
<circle cx="1025.2" cy="147.3" r="4" fill="#3e25bb" filter="url(#glow)"/>
<circle cx="1025.2" cy="147.3" r="2" fill="#fff" opacity="0.8"/>
<circle cx="940.2" cy="400.9" r="4" fill="#259bbb" filter="url(#glow)"/>
<circle cx="940.2" cy="400.9" r="2" fill="#fff" opacity="0.8"/>
<circle cx="913.9" cy="105.6" r="4" fill="#254abd" filter="url(#glow)"/>
<circle cx="913.9" cy="105.6" r="2" fill="#fff" opacity="0.8"/>
<circle cx="662.6" cy="212.0" r="4" fill="#27187c" filter="url(#glow)"/>
<circle cx="662.6" cy="212.0" r="2" fill="#fff" opacity="0.8"/>
<circle cx="419.2" cy="107.4" r="4" fill="#2293aa" filter="url(#glow)"/>
<circle cx="419.2" cy="107.4" r="2" fill="#fff" opacity="0.8"/>
<circle cx="924.7" cy="444.6" r="4" fill="#1f2c9c" filter="url(#glow)"/>
<circle cx="924.7" cy="444.6" r="2" fill="#fff" opacity="0.8"/>
<circle cx="498.3" cy="649.1" r="4" fill="#2579bc" filter="url(#glow)"/>
<circle cx="498.3" cy="649.1" r="2" fill="#fff" opacity="0.8"/>
<circle cx="648.5" cy="299.4" r="4" fill="#4223b3" filter="url(#glow)"/>
<circle cx="648.5" cy="299.4" r="2" fill="#fff" opacity="0.8"/>
<circle cx="731.3" cy="559.1" r="4" fill="#164b72" filter="url(#glow)"/>
<circle cx="731.3" cy="559.1" r="2" fill="#fff" opacity="0.8"/>
<circle cx="436.9" cy="132.0" r="4" fill="#2082a2" filter="url(#glow)"/>
<circle cx="436.9" cy="132.0" r="2" fill="#fff" opacity="0.8"/>
<circle cx="452.1" cy="135.6" r="4" fill="#171774" filter="url(#glow)"/>
<circle cx="452.1" cy="135.6" r="2" fill="#fff" opacity="0.8"/>
<circle cx="381.6" cy="318.5" r="4" fill="#211878" filter="url(#glow)"/>
<circle cx="381.6" cy="318.5" r="2" fill="#fff" opacity="0.8"/>
<circle cx="548.5" cy="457.9" r="4" fill="#255cbc" filter="url(#glow)"/>
<circle cx="548.5" cy="457.9" r="2" fill="#fff" opacity="0.8"/>
<circle cx="505.9" cy="719.7" r="4" fill="#22a6ac" filter="url(#glow)"/>
<circle cx="505.9" cy="719.7" r="2" fill="#fff" opacity="0.8"/>
<circle cx="924.7" cy="325.2" r="4" fill="#2726be" filter="url(#glow)"/>
<circle cx="924.7" cy="325.2" r="2" fill="#fff" opacity="0.8"/>
<circle cx="623.3" cy="76.6" r="4" fill="#211a86" filter="url(#glow)"/>
<circle cx="623.3" cy="76.6" r="2" fill="#fff" opacity="0.8"/>
<circle cx="608.0" cy="548.1" r="4" fill="#1e609a" filter="url(#glow)"/>
<circle cx="608.0" cy="548.1" r="2" fill="#fff" opacity="0.8"/>
<circle cx="566.6" cy="704.4" r="4" fill="#1a6d82" filter="url(#glow)"/>
<circle cx="566.6" cy="704.4" r="2" fill="#fff" opacity="0.8"/>
<circle cx="234.6" cy="247.8" r="4" fill="#1d3693" filter="url(#glow)"/>
<circle cx="234.6" cy="247.8" r="2" fill="#fff" opacity="0.8"/>
<circle cx="1181.0" cy="710.2" r="4" fill="#173474" filter="url(#glow)"/>
<circle cx="1181.0" cy="710.2" r="2" fill="#fff" opacity="0.8"/>
<circle cx="888.5" cy="113.8" r="4" fill="#1f419f" filter="url(#glow)"/>
<circle cx="888.5" cy="113.8" r="2" fill="#fff" opacity="0.8"/>
<circle cx="817.3" cy="611.7" r="4" fill="#174a73" filter="url(#glow)"/>
<circle cx="817.3" cy="611.7" r="2" fill="#fff" opacity="0.8"/>
<text x="20" y="30" fill="#668" font-family="monospace" font-size="14">t=40: Clumping begins. Weak attraction creates seeds.</text>
</svg>